# 3ds Max Wavefront OBJ Exporter v0.97b - (c)2007 guruware
# File Created: 27.02.2014 03:31:42

mtllib Coconut.mtl

#
# object n0b0
#

v  -16.6375 86.5040 53.9300
v  -11.4876 101.1413 35.2275
v  -30.0749 101.1413 21.7718
v  16.6375 86.5040 53.9300
v  20.5023 68.2036 69.5780
v  53.6759 68.2036 43.0016
v  62.6134 51.0925 48.4644
v  77.3944 51.0925 -0.0000
v  81.3278 30.3968 -0.0000
v  65.7956 30.3968 -52.2956
v  69.3671 10.3572 -54.1562
v  26.4959 10.3572 -87.6266
v  26.1384 -14.8259 -86.3473
v  -26.1384 -14.8259 -86.3473
v  -24.3835 -37.1404 -80.4733
v  -63.8368 -37.1404 -49.7353
v  -55.0658 -60.5408 -42.4698
v  -68.0650 -60.5408 -0.0000
v  -53.4099 -79.6888 -0.0000
v  -43.2095 -79.6888 30.5430
v  0.0000 -105.4544 -0.0000
v  -16.5046 -79.6888 49.4197
v  16.5046 -79.6888 49.4197
v  21.0332 -60.5408 68.7175
v  43.2095 -79.6888 30.5431
v  55.0657 -60.5408 42.4698
v  53.4099 -79.6888 -0.0000
v  68.0650 -60.5408 -0.0000
v  43.2095 -79.6888 -30.5430
v  55.0657 -60.5408 -42.4698
v  16.5046 -79.6888 -49.4197
v  21.0332 -60.5408 -68.7175
v  -16.5046 -79.6888 -49.4197
v  -21.0332 -60.5408 -68.7175
v  43.5575 86.5040 33.3306
v  69.0010 68.2036 -0.0000
v  55.2862 68.2036 -43.0016
v  62.6134 51.0925 -48.4643
v  23.9162 51.0925 -78.4169
v  25.1317 30.3968 -84.6161
v  -25.1317 30.3968 -84.6161
v  -26.4959 10.3572 -87.6266
v  -65.7956 30.3968 -52.2956
v  -69.3671 10.3572 -54.1562
v  -85.7425 10.3572 -0.0000
v  -84.5856 -14.8259 -0.0000
v  -68.4312 -14.8259 53.3655
v  -63.8368 -37.1404 49.7353
v  -24.3835 -37.1404 80.4733
v  -21.0332 -60.5408 68.7175
v  24.3835 -37.1404 80.4733
v  -11.4876 101.1413 -35.2275
v  -5.8186 112.0633 -17.1204
v  11.4876 101.1413 -35.2275
v  -15.2334 112.0633 -10.5810
v  -30.0749 101.1413 -21.7718
v  -18.8295 112.0633 -0.0000
v  -37.1746 101.1413 -0.0000
v  -15.2334 112.0633 10.5810
v  -5.8186 112.0633 17.1204
v  5.8186 112.0633 17.1204
v  11.4876 101.1413 35.2275
v  15.2334 112.0633 10.5810
v  30.0748 101.1413 21.7718
v  18.8295 112.0633 -0.0000
v  37.1745 101.1413 -0.0000
v  15.2334 112.0633 -10.5810
v  30.0748 101.1413 -21.7718
v  5.8186 112.5204 -17.1204
v  -20.5024 68.2036 69.5780
v  -43.5576 86.5040 33.3306
v  -23.9162 51.0925 78.4169
v  23.9162 51.0925 78.4169
v  25.1317 30.3968 84.6161
v  65.7956 30.3968 52.2956
v  69.3671 10.3572 54.1562
v  85.7425 10.3572 -0.0000
v  84.5856 -14.8259 -0.0000
v  68.4312 -14.8259 -53.3655
v  63.8368 -37.1404 -49.7353
v  24.3835 -37.1404 -80.4733
v  -53.8401 86.5040 -0.0000
v  -43.5575 86.5040 -33.3306
v  -16.6375 86.5040 -53.9300
v  16.6375 86.5040 -53.9300
v  43.5576 86.5040 -33.3306
v  53.8401 86.5040 -0.0000
v  -55.2862 68.2036 -43.0016
v  -69.0010 68.2036 -0.0000
v  -77.3945 51.0925 -0.0000
v  -62.6135 51.0925 48.4643
v  -65.7956 30.3968 52.2956
v  -25.1317 30.3968 84.6161
v  -26.4959 10.3572 87.6266
v  26.4958 10.3572 87.6266
v  26.1384 -14.8259 86.3473
v  68.4312 -14.8259 53.3655
v  63.8368 -37.1404 49.7353
v  78.9066 -37.1404 -0.0000
v  -53.6760 68.2036 43.0016
v  -55.0658 -60.5408 42.4698
v  -78.9066 -37.1404 -0.0000
v  -68.4312 -14.8259 -53.3655
v  -20.5024 68.2036 -69.5780
v  -62.6135 51.0925 -48.4644
v  -81.3278 30.3968 -0.0000
v  -69.3671 10.3572 54.1562
v  -26.1384 -14.8259 86.3473
v  20.5024 68.2036 -69.5780
v  -23.9162 51.0925 -78.4169
v  -1.8126 108.4057 4.1022
v  -3.8561 108.4057 -0.0000
v  -1.4853 129.7447 -2.9726
v  -2.9706 108.4057 -5.9453
v  2.9706 108.4057 -5.9453
v  5.4311 108.4057 -0.0000
v  2.5269 108.4057 3.7629
v  4.5720 129.1381 -0.0000
v  -43.2095 -79.6888 -30.5431
# 119 vertices

vn -0.2251 0.7209 0.6555
vn -0.1755 0.8282 0.5323
vn -0.4752 0.8132 0.3359
vn 0.2307 0.7199 0.6547
vn 0.2644 0.5667 0.7804
vn 0.6762 0.5564 0.4829
vn 0.7743 0.3664 0.5159
vn 0.9482 0.3176 0.0063
vn 0.9796 0.2010 0.0012
vn 0.8045 0.2078 -0.5564
vn 0.8240 0.0733 -0.5618
vn 0.3275 0.0552 -0.9432
vn 0.3206 -0.1560 -0.9343
vn -0.3206 -0.1560 -0.9343
vn -0.3023 -0.3579 -0.8835
vn -0.7745 -0.3402 -0.5332
vn -0.6872 -0.5415 -0.4843
vn -0.8597 -0.5109 0.0028
vn -0.6559 -0.7548 0.0049
vn -0.5206 -0.7713 0.3661
vn 0.0000 -1.0000 -0.0000
vn -0.1944 -0.7997 0.5681
vn 0.1861 -0.8029 0.5664
vn 0.2592 -0.5799 0.7723
vn 0.5167 -0.7762 0.3613
vn 0.6912 -0.5377 0.4828
vn 0.6559 -0.7548 -0.0049
vn 0.8597 -0.5109 -0.0028
vn 0.5206 -0.7713 -0.3661
vn 0.6877 -0.5423 -0.4826
vn 0.1944 -0.7997 -0.5681
vn 0.2625 -0.5820 -0.7697
vn -0.1944 -0.7997 -0.5681
vn -0.2614 -0.5825 -0.7696
vn 0.5949 0.6859 0.4191
vn 0.8488 0.5286 0.0106
vn 0.6857 0.5485 -0.4785
vn 0.7773 0.3446 -0.5265
vn 0.3040 0.3805 -0.8734
vn 0.3145 0.2216 -0.9230
vn -0.3162 0.2233 -0.9220
vn -0.3275 0.0552 -0.9432
vn -0.8027 0.2116 -0.5576
vn -0.8236 0.0725 -0.5626
vn -0.9966 0.0826 0.0009
vn -0.9895 -0.1445 0.0001
vn -0.8149 -0.1488 0.5601
vn -0.7741 -0.3411 0.5333
vn -0.3029 -0.3583 0.8831
vn -0.2625 -0.5820 0.7697
vn 0.3023 -0.3579 0.8835
vn -0.1797 0.8262 -0.5340
vn -0.0669 0.9825 -0.1740
vn 0.1752 0.8254 -0.5366
vn -0.1585 0.9797 -0.1231
vn -0.4784 0.8100 -0.3392
vn -0.2211 0.9752 -0.0013
vn -0.5982 0.8014 -0.0022
vn -0.1724 0.9761 0.1320
vn -0.0625 0.9794 0.1921
vn 0.0602 0.9797 0.1910
vn 0.1797 0.8262 0.5340
vn 0.1693 0.9772 0.1279
vn 0.4784 0.8100 0.3392
vn 0.2174 0.9761 -0.0034
vn 0.5982 0.8014 0.0022
vn 0.1705 0.9792 -0.1098
vn 0.4779 0.8117 -0.3357
vn 0.0479 0.9849 -0.1661
vn -0.2669 0.5631 0.7821
vn -0.6065 0.6805 0.4110
vn -0.3065 0.3832 0.8713
vn 0.3047 0.3812 0.8728
vn 0.3126 0.2229 0.9233
vn 0.8058 0.2102 0.5536
vn 0.8250 0.0721 0.5605
vn 0.9965 0.0834 0.0000
vn 0.9895 -0.1445 -0.0000
vn 0.8149 -0.1487 -0.5601
vn 0.7741 -0.3411 -0.5332
vn 0.3028 -0.3584 -0.8831
vn -0.7272 0.6863 0.0071
vn -0.5849 0.7004 -0.4091
vn -0.2258 0.7221 -0.6539
vn 0.2251 0.7209 -0.6555
vn 0.5888 0.6972 -0.4090
vn 0.7243 0.6895 -0.0008
vn -0.6853 0.5470 -0.4808
vn -0.8435 0.5371 0.0051
vn -0.9501 0.3118 -0.0033
vn -0.7696 0.3638 0.5248
vn -0.8045 0.2078 0.5564
vn -0.3145 0.2216 0.9230
vn -0.3275 0.0552 0.9432
vn 0.3259 0.0540 0.9439
vn 0.3205 -0.1561 0.9343
vn 0.8150 -0.1488 0.5601
vn 0.7745 -0.3402 0.5332
vn 0.9440 -0.3301 -0.0004
vn -0.6700 0.5605 0.4867
vn -0.6877 -0.5423 0.4826
vn -0.9440 -0.3301 0.0004
vn -0.8149 -0.1487 -0.5602
vn -0.2605 0.5644 -0.7833
vn -0.7769 0.3425 -0.5284
vn -0.9794 0.2018 -0.0002
vn -0.8240 0.0732 0.5618
vn -0.3207 -0.1561 0.9342
vn 0.2591 0.5652 -0.7832
vn -0.3076 0.3793 -0.8727
vn -0.1448 0.9565 0.2531
vn -0.4402 0.8947 0.0759
vn -0.4274 0.8705 -0.2441
vn -0.1718 0.9709 -0.1666
vn 0.1635 0.9564 -0.2421
vn 0.3626 0.9315 0.0281
vn 0.1558 0.9166 0.3681
vn 0.5465 0.8063 0.2263
vn -0.5153 -0.7737 -0.3686
# 119 vertex normals

vt 0.6123 0.8607 0.0000
vt 0.6561 0.8254 0.0000
vt 0.6515 0.6298 0.0000
vt 0.6070 0.6143 0.0000
vt 0.5449 0.5645 0.0000
vt 0.5337 0.2411 0.0000
vt 0.4695 0.2406 0.0000
vt 0.4903 0.0362 0.0000
vt 0.4075 0.0220 0.0000
vt 0.3855 0.2453 0.0000
vt 0.3091 0.2526 0.0000
vt 0.3037 0.5415 0.0000
vt 0.2006 0.5239 0.0000
vt 0.1990 0.2553 0.0000
vt 0.1403 0.3428 0.0000
vt 0.1430 0.5556 0.0000
vt 0.1011 0.6448 0.0000
vt 0.0854 0.1087 0.0000
vt 0.0476 0.2901 0.0000
vt 0.0454 0.7433 0.0000
vt 0.0411 0.7884 0.0000
vt 0.0616 0.8596 0.0000
vt 0.0580 0.7138 0.0000
vt 0.0448 0.5375 0.0000
vt 0.0895 0.4427 0.0000
vt 0.5870 0.2754 0.0000
vt 0.5610 0.0287 0.0000
vt 0.4789 0.5544 0.0000
vt 0.3936 0.5395 0.0000
vt 0.3375 0.0204 0.0000
vt 0.2285 0.0329 0.0000
vt 0.1617 0.9574 0.0000
vt 0.1067 0.9237 0.0000
vt 0.7550 0.1914 0.0000
vt 0.7698 0.3353 0.0000
vt 0.8401 0.1914 0.0000
vt 0.7360 0.3997 0.0000
vt 0.6817 0.3080 0.0000
vt 0.7197 0.4683 0.0000
vt 0.6617 0.4396 0.0000
vt 0.7276 0.5369 0.0000
vt 0.6771 0.6210 0.0000
vt 0.7698 0.6013 0.0000
vt 0.7550 0.7409 0.0000
vt 0.8256 0.6013 0.0000
vt 0.8446 0.7409 0.0000
vt 0.8679 0.5369 0.0000
vt 0.9224 0.6213 0.0000
vt 0.8758 0.4683 0.0000
vt 0.9463 0.4376 0.0000
vt 0.8679 0.3997 0.0000
vt 0.9089 0.3167 0.0000
vt 0.8256 0.3353 0.0000
vt 0.5563 0.8962 0.0000
vt 0.6062 0.6129 0.0000
vt 0.4857 0.9349 0.0000
vt 0.6492 0.1285 0.0000
vt 0.6158 0.0891 0.0000
vt 0.6514 0.6319 0.0000
vt 0.6394 0.2737 0.0000
vt 0.6169 0.0944 0.0000
vt 0.5618 0.0299 0.0000
vt 0.4903 0.0322 0.0000
vt 0.4042 0.9738 0.0000
vt 0.3319 0.9882 0.0000
vt 0.1625 0.0588 0.0000
vt 0.4083 0.0203 0.0000
vt 0.2237 0.9823 0.0000
vt 0.7881 0.5243 0.0000
vt 0.7773 0.4806 0.0000
vt 0.7899 0.4489 0.0000
vt 0.7820 0.4172 0.0000
vt 0.8134 0.4172 0.0000
vt 0.8264 0.4806 0.0000
vt 0.8111 0.5207 0.0000
vt 0.8219 0.4806 0.0000
vt 0.0616 0.8598 0.0000
# 77 texture coords

g n0b0
usemtl 01___Default
s 1
f 1/1/1 2/2/2 3/3/3 
f 2/2/2 1/1/1 4/4/4 
f 5/5/5 4/4/4 1/1/1 
f 4/4/4 5/5/5 6/6/6 
f 7/7/7 6/6/6 5/5/5 
f 6/6/6 7/7/7 8/8/8 
f 9/9/9 8/8/8 7/7/7 
f 8/8/8 9/9/9 10/10/10 
f 11/11/11 10/10/10 9/9/9 
f 10/10/10 11/11/11 12/12/12 
f 13/13/13 12/12/12 11/11/11 
f 12/12/12 13/13/13 14/14/14 
f 15/15/15 14/14/14 13/13/13 
f 14/14/14 15/15/15 16/16/16 
f 17/17/17 16/16/16 15/15/15 
f 16/16/16 17/17/17 18/18/18 
f 19/19/19 18/18/18 17/17/17 
f 18/18/18 19/19/19 20/20/20 
f 21/21/21 20/20/20 19/19/19 
f 20/20/20 21/21/21 22/22/22 
f 23/23/23 22/22/22 21/21/21 
f 22/22/22 23/23/23 24/17/24 
f 25/24/25 24/17/24 23/23/23 
f 24/17/24 25/24/25 26/25/26 
f 27/24/27 26/25/26 25/24/25 
f 26/25/26 27/24/27 28/18/28 
f 29/24/29 28/18/28 27/24/27 
f 28/18/28 29/24/29 30/25/30 
f 31/23/31 30/25/30 29/24/29 
f 30/25/30 31/23/31 32/17/32 
f 33/22/33 32/17/32 31/23/31 
f 32/17/32 33/22/33 34/25/34 
f 17/17/17 34/25/34 33/22/33 
f 34/25/34 17/17/17 15/15/15 
f 6/6/6 35/26/35 4/4/4 
f 35/26/35 6/6/6 36/27/36 
f 8/8/8 36/27/36 6/6/6 
f 36/27/36 8/8/8 37/6/37 
f 38/7/38 37/6/37 8/8/8 
f 37/6/37 38/7/38 39/28/39 
f 40/29/40 39/28/39 38/7/38 
f 39/28/39 40/29/40 41/10/41 
f 42/11/42 41/10/41 40/29/40 
f 41/10/41 42/11/42 43/29/43 
f 44/12/44 43/29/43 42/11/42 
f 43/29/43 44/12/44 45/30/45 
f 46/31/46 45/30/45 44/12/44 
f 45/30/45 46/31/46 47/13/47 
f 48/16/48 47/13/47 46/31/46 
f 47/13/47 48/16/48 49/32/49 
f 50/33/50 49/32/49 48/16/48 
f 49/32/49 50/33/50 51/16/51 
f 24/17/24 51/16/51 50/33/50 
f 51/16/51 24/17/24 26/25/26 
f 52/34/52 53/35/53 54/36/54 
f 53/35/53 52/34/52 55/37/55 
f 56/38/56 55/37/55 52/34/52 
f 55/37/55 56/38/56 57/39/57 
f 58/40/58 57/39/57 56/38/56 
f 57/39/57 58/40/58 59/41/59 
f 3/42/3 59/41/59 58/40/58 
f 59/41/59 3/42/3 60/43/60 
f 2/44/2 60/43/60 3/42/3 
f 60/43/60 2/44/2 61/45/61 
f 62/46/62 61/45/61 2/44/2 
f 61/45/61 62/46/62 63/47/63 
f 64/48/64 63/47/63 62/46/62 
f 63/47/63 64/48/64 65/49/65 
f 66/50/66 65/49/65 64/48/64 
f 65/49/65 66/50/66 67/51/67 
f 68/52/68 67/51/67 66/50/66 
f 67/51/67 68/52/68 69/53/69 
f 54/36/54 69/53/69 68/52/68 
f 69/53/69 54/36/54 53/35/53 
f 70/54/70 1/1/1 71/55/71 
f 1/1/1 70/54/70 5/5/5 
f 72/56/72 5/5/5 70/54/70 
f 5/5/5 72/56/72 73/28/73 
f 74/29/74 73/28/73 72/56/72 
f 73/28/73 74/29/74 7/7/7 
f 75/10/75 7/7/7 74/29/74 
f 7/7/7 75/10/75 9/9/9 
f 76/11/76 9/9/9 75/10/75 
f 9/9/9 76/11/76 77/30/77 
f 78/31/78 77/30/77 76/11/76 
f 77/30/77 78/31/78 11/11/11 
f 79/14/79 11/11/11 78/31/78 
f 11/11/11 79/14/79 13/13/13 
f 80/15/80 13/13/13 79/14/79 
f 13/13/13 80/15/80 81/16/81 
f 32/17/32 81/16/81 80/15/80 
f 81/16/81 32/17/32 15/15/15 
f 34/25/34 15/15/15 32/17/32 
f 58/57/58 71/4/71 3/3/3 
f 71/4/71 58/57/58 82/58/82 
f 56/59/56 82/58/82 58/57/58 
f 82/58/82 56/59/56 83/4/83 
f 52/60/52 83/4/83 56/59/56 
f 83/4/83 52/60/52 84/26/84 
f 54/3/54 84/26/84 52/60/52 
f 84/26/84 54/3/54 85/4/85 
f 68/60/68 85/4/85 54/3/54 
f 85/4/85 68/60/68 86/26/86 
f 66/57/66 86/26/86 68/60/68 
f 86/26/86 66/57/66 87/61/87 
f 64/60/64 87/61/87 66/57/66 
f 87/61/87 64/60/64 35/26/35 
f 62/3/62 35/26/35 64/60/64 
f 35/26/35 62/3/62 4/4/4 
f 2/2/2 4/4/4 62/3/62 
f 88/5/88 83/4/83 84/26/84 
f 83/4/83 88/5/88 89/62/89 
f 90/63/90 89/62/89 88/5/88 
f 89/62/89 90/63/90 91/28/91 
f 92/29/92 91/28/91 90/63/90 
f 91/28/91 92/29/92 93/64/93 
f 94/65/94 93/64/93 92/29/92 
f 93/64/93 94/65/94 95/12/95 
f 96/13/96 95/12/95 94/65/94 
f 95/12/95 96/13/96 97/14/97 
f 98/15/98 97/14/97 96/13/96 
f 97/14/97 98/15/98 99/66/99 
f 28/18/28 99/66/99 98/15/98 
f 99/66/99 28/18/28 30/25/30 
f 89/62/89 82/58/82 83/4/83 
f 82/58/82 89/62/89 100/5/100 
f 91/28/91 100/5/100 89/62/89 
f 100/5/100 91/28/91 72/56/72 
f 93/64/93 72/56/72 91/28/91 
f 72/56/72 93/64/93 74/29/74 
f 95/12/95 74/29/74 93/64/93 
f 74/29/74 95/12/95 76/11/76 
f 97/14/97 76/11/76 95/12/95 
f 76/11/76 97/14/97 78/31/78 
f 99/66/99 78/31/78 97/14/97 
f 78/31/78 99/66/99 80/15/80 
f 30/25/30 80/15/80 99/66/99 
f 80/15/80 30/25/30 32/17/32 
f 50/33/50 22/22/22 24/17/24 
f 22/22/22 50/33/50 101/25/101 
f 48/16/48 101/25/101 50/33/50 
f 101/25/101 48/16/48 102/66/102 
f 46/31/46 102/66/102 48/16/48 
f 102/66/102 46/31/46 103/13/103 
f 44/12/44 103/13/103 46/31/46 
f 103/13/103 44/12/44 14/14/14 
f 42/11/42 14/14/14 44/12/44 
f 14/14/14 42/11/42 12/12/12 
f 40/29/40 12/12/12 42/11/42 
f 12/12/12 40/29/40 10/10/10 
f 38/7/38 10/10/10 40/29/40 
f 10/10/10 38/7/38 8/8/8 
f 104/6/104 84/26/84 85/4/85 
f 84/26/84 104/6/104 88/5/88 
f 105/28/105 88/5/88 104/6/104 
f 88/5/88 105/28/105 90/63/90 
f 106/67/106 90/63/90 105/28/105 
f 90/63/90 106/67/106 92/29/92 
f 107/12/107 92/29/92 106/67/106 
f 92/29/92 107/12/107 94/65/94 
f 108/68/108 94/65/94 107/12/107 
f 94/65/94 108/68/108 96/13/96 
f 51/16/51 96/13/96 108/68/108 
f 96/13/96 51/16/51 98/15/98 
f 26/25/26 98/15/98 51/16/51 
f 98/15/98 26/25/26 28/18/28 
f 109/5/109 85/4/85 86/26/86 
f 85/4/85 109/5/109 104/6/104 
f 110/7/110 104/6/104 109/5/109 
f 104/6/104 110/7/110 105/28/105 
f 43/29/43 105/28/105 110/7/110 
f 105/28/105 43/29/43 106/67/106 
f 45/30/45 106/67/106 43/29/43 
f 106/67/106 45/30/45 107/12/107 
f 47/13/47 107/12/107 45/30/45 
f 107/12/107 47/13/47 108/68/108 
f 49/32/49 108/68/108 47/13/47 
f 108/68/108 49/32/49 51/16/51 
f 111/69/111 57/39/57 59/41/59 
f 57/39/57 111/69/111 112/70/112 
f 113/71/113 112/70/112 111/69/111 
f 112/70/112 113/71/113 114/72/114 
f 115/73/115 114/72/114 113/71/113 
f 114/72/114 115/73/115 53/35/53 
f 69/53/69 53/35/53 115/73/115 
f 115/73/115 67/51/67 69/53/69 
f 67/51/67 115/73/115 65/49/65 
f 116/74/116 65/49/65 115/73/115 
f 65/49/65 116/74/116 117/75/117 
f 118/76/118 117/75/117 116/74/116 
f 117/75/117 118/76/118 111/69/111 
f 113/71/113 111/69/111 118/76/118 
f 101/25/101 20/20/20 22/22/22 
f 20/20/20 101/25/101 18/18/18 
f 102/66/102 18/18/18 101/25/101 
f 18/18/18 102/66/102 16/16/16 
f 103/13/103 16/16/16 102/66/102 
f 16/16/16 103/13/103 14/14/14 
f 37/6/37 86/26/86 87/61/87 
f 86/26/86 37/6/37 109/5/109 
f 39/28/39 109/5/109 37/6/37 
f 109/5/109 39/28/39 110/7/110 
f 41/10/41 110/7/110 39/28/39 
f 110/7/110 41/10/41 43/29/43 
f 21/21/21 31/23/31 29/24/29 
f 31/23/31 21/21/21 33/22/33 
f 119/77/119 33/22/33 21/21/21 
f 33/22/33 119/77/119 17/17/17 
f 19/19/19 17/17/17 119/77/119 
f 117/75/117 63/47/63 65/49/65 
f 63/47/63 117/75/117 61/45/61 
f 111/69/111 61/45/61 117/75/117 
f 61/45/61 111/69/111 60/43/60 
f 59/41/59 60/43/60 111/69/111 
f 21/21/21 25/24/25 23/23/23 
f 25/24/25 21/21/21 27/24/27 
f 29/24/29 27/24/27 21/21/21 
f 100/5/100 71/4/71 82/58/82 
f 71/4/71 100/5/100 70/54/70 
f 72/56/72 70/54/70 100/5/100 
f 36/27/36 87/61/87 35/26/35 
f 87/61/87 36/27/36 37/6/37 
f 55/37/55 114/72/114 53/35/53 
f 114/72/114 55/37/55 57/39/57 
f 115/73/115 118/76/118 116/74/116 
f 118/76/118 115/73/115 113/71/113 
f 80/15/80 79/14/79 78/31/78 
f 73/28/73 7/7/7 5/5/5 
f 76/11/76 75/10/75 74/29/74 
f 19/19/19 119/77/119 21/21/21 
f 3/59/3 71/4/71 1/1/1 
f 81/16/81 15/15/15 13/13/13 
f 112/70/112 114/72/114 57/39/57 
f 77/30/77 11/11/11 9/9/9 
# 0 polygons - 234 triangles

