# Blender v2.77 (sub 0) OBJ File: ''
# www.blender.org
mtllib Red Orb.mtl
o MODELS_bin_036:poly000
v 0.071094 0.678516 0.106250
v -0.071094 0.678516 -0.106250
v 0.210547 0.648828 -0.106250
v 0.064453 0.614063 -0.308594
v 0.308594 0.534766 -0.308594
v 0.143359 0.441797 -0.510547
v 0.375781 0.273047 -0.510547
v 0.201172 0.146094 -0.643750
v 0.464453 0.000000 -0.510547
v 0.201172 -0.146094 -0.643750
v 0.375781 -0.273047 -0.510547
v 0.143359 -0.441797 -0.510547
v 0.308594 -0.534766 -0.308594
v 0.064453 -0.614063 -0.308594
v 0.210547 -0.648828 -0.106250
v -0.071094 -0.678516 -0.106250
v 0.071094 -0.678516 0.106250
v 0.000000 0.000000 -0.690235
v -0.076953 -0.236719 -0.643750
v -0.143359 -0.441797 -0.510547
v -0.076953 0.236719 -0.643750
v -0.248828 0.000000 -0.643750
v -0.190625 -0.587110 -0.308594
v -0.375781 -0.273047 -0.510547
v -0.413281 -0.458984 -0.308594
v -0.341016 -0.590625 -0.106250
v -0.210547 -0.648828 0.106250
v -0.064453 -0.614063 0.308594
v 0.190625 -0.587110 0.308594
v 0.143359 -0.441797 0.510547
v 0.413281 -0.458985 0.308594
v 0.375781 -0.273047 0.510547
v 0.564063 -0.251172 0.308594
v 0.464453 -0.000000 0.510547
v 0.617578 -0.000000 0.308594
v 0.564063 0.251172 0.308594
v 0.667188 0.141797 0.106250
v 0.551953 0.400781 0.106250
v 0.623047 0.277344 -0.106250
v 0.456250 0.507031 -0.106250
v 0.499610 0.362891 -0.308594
v -0.190625 0.587110 -0.308594
v -0.143359 0.441797 -0.510547
v -0.210547 0.648828 0.106250
v -0.064453 0.614063 0.308594
v -0.308594 0.534766 0.308594
v -0.143359 0.441797 0.510547
v -0.375781 0.273047 0.510547
v -0.201172 0.146094 0.643750
v -0.464453 -0.000000 0.510547
v -0.201172 -0.146094 0.643750
v -0.375781 -0.273047 0.510547
v -0.143359 -0.441797 0.510547
v -0.308594 -0.534766 0.308594
v 0.341016 0.590625 0.106250
v -0.375781 0.273047 -0.510547
v -0.413281 0.458985 -0.308594
v -0.564063 0.251172 -0.308594
v -0.551953 0.400781 -0.106250
v -0.667188 0.141797 -0.106250
v -0.623047 0.277344 0.106250
v -0.682031 -0.000000 0.106250
v -0.603906 0.128125 0.308594
v -0.603906 -0.128125 0.308594
v -0.341016 0.590625 -0.106250
v -0.456250 0.507031 0.106250
v -0.499610 0.362891 0.308594
v 0.667188 -0.141797 0.106250
v 0.682031 0.000000 -0.106250
v 0.623047 -0.277344 -0.106250
v 0.603906 -0.128125 -0.308594
v 0.499610 -0.362891 -0.308594
v 0.143359 0.441797 0.510547
v 0.190625 0.587110 0.308594
v 0.413281 0.458984 0.308594
v 0.248828 -0.000000 0.643750
v 0.375781 0.273047 0.510547
v 0.603906 0.128125 -0.308594
v 0.076953 0.236719 0.643750
v 0.000000 -0.000000 0.690235
v -0.499610 -0.362891 0.308594
v -0.623047 -0.277344 0.106250
v -0.667188 -0.141797 -0.106250
v -0.617578 0.000000 -0.308594
v -0.464453 0.000000 -0.510547
v 0.076953 -0.236719 0.643750
v -0.456250 -0.507031 0.106250
v -0.551953 -0.400781 -0.106250
v -0.564063 -0.251172 -0.308594
v 0.341016 -0.590625 0.106250
v 0.456250 -0.507031 -0.106250
v 0.551953 -0.400781 0.106250
vt 2.6875 -0.3809
vt 1.1484 -0.2773
vt 1.6875 -0.3809
vt 1.4336 -0.1973
vt 1.2500 -0.0635
vt 1.4121 0.0586
vt 1.2979 0.2412
vt 1.4033 0.3643
vt 1.2646 0.5000
vt 1.4033 0.6367
vt 1.2979 0.7598
vt 1.4121 0.9424
vt 1.2500 1.0635
vt 1.4336 1.1973
vt 1.1484 1.2773
vt 1.6875 1.3809
vt 0.6875 1.3809
vt 1.5000 0.5000
vt 1.5371 0.7236
vt 1.5869 0.9424
vt -0.4619 0.2773
vt -0.5000 0.5000
vt -0.3818 0.5000
vt -0.4619 0.7236
vt 1.6758 1.1475
vt 1.5371 0.2773
vt -0.4121 0.9424
vt -0.2979 0.7598
vt -0.2041 0.9629
vt -0.3232 1.1475
vt -0.0957 1.1533
vt -0.3115 1.3809
vt 0.1484 1.2773
vt 0.4336 1.1973
vt 0.6758 1.1475
vt 0.5869 0.9424
vt 0.7949 0.9629
vt 0.7012 0.7598
vt 0.8398 0.7373
vt 0.7344 0.5000
vt 0.8516 0.5000
vt 0.8398 0.2637
vt 0.9492 0.3691
vt 0.9385 0.1064
vt 1.0537 0.2373
vt 1.0723 -0.0244
vt 1.1758 0.1484
vt 1.6758 -0.1475
vt 1.5869 0.0586
vt -0.3115 -0.3809
vt 0.1484 -0.2773
vt 0.6875 -0.3809
vt 0.4336 -0.1973
vt 0.2500 -0.0635
vt 0.4121 0.0586
vt 0.2979 0.2412
vt 0.4033 0.3643
vt 0.2646 0.5000
vt 0.4033 0.6367
vt 0.2979 0.7598
vt 0.4121 0.9424
vt 0.2500 1.0635
vt 0.9033 -0.1533
vt -0.2979 0.2412
vt -0.4121 0.0586
vt -0.2041 0.0381
vt -0.1592 0.2637
vt -0.0605 0.1064
vt -0.0498 0.3691
vt 0.0537 0.2373
vt 0.0488 0.5000
vt 0.1504 0.3818
vt 0.1504 0.6191
vt -0.3232 -0.1475
vt -0.0957 -0.1533
vt 0.0723 -0.0244
vt 0.1758 0.1484
vt 0.9492 0.6318
vt 1.0537 0.7637
vt 1.0488 0.5000
vt 1.1504 0.6191
vt 1.1758 0.8525
vt 0.5869 0.0586
vt 0.6758 -0.1475
vt 0.7949 0.0381
vt 0.6172 0.5000
vt 0.7012 0.2412
vt 1.1504 0.3818
vt 0.5371 0.2773
vt 0.5000 0.5000
vt 0.1758 0.8525
vt 0.0537 0.7637
vt -0.0498 0.6318
vt -0.1475 0.5000
vt -0.2646 0.5000
vt 0.5371 0.7236
vt 0.0723 1.0244
vt -0.0605 0.8945
vt -0.1592 0.7373
vt 0.9033 1.1533
vt 1.0723 1.0244
vt 0.9385 0.8945
vn 0.1046 0.9921 -0.0700
vn 0.1018 0.9656 -0.2394
vn 0.2881 0.8871 -0.3605
vn 0.2542 0.7826 -0.5682
vn 0.4469 0.6156 -0.6491
vn 0.3198 0.4404 -0.8389
vn 0.5177 0.1681 -0.8389
vn 0.4514 0.0000 -0.8923
vn 0.5177 -0.1681 -0.8389
vn 0.3198 -0.4404 -0.8389
vn 0.4469 -0.6156 -0.6491
vn 0.2542 -0.7826 -0.5682
vn 0.2881 -0.8871 -0.3605
vn 0.1018 -0.9656 -0.2394
vn 0.1046 -0.9921 -0.0700
vn 0.0697 -0.2140 -0.9743
vn 0.1399 -0.4293 -0.8923
vn 0.0000 -0.5447 -0.8386
vn 0.0000 -0.7608 -0.6490
vn -0.1820 0.1322 -0.9744
vn -0.1820 -0.1322 -0.9744
vn -0.0980 -0.9274 -0.3610
vn -0.0845 -0.7993 -0.5949
vn 0.2251 0.0000 -0.9743
vn 0.0697 0.2140 -0.9743
vn -0.3202 -0.4410 -0.8385
vn -0.4467 -0.6153 -0.6495
vn -0.4008 -0.6966 -0.5950
vn -0.4653 -0.8087 -0.3599
vn -0.3006 -0.9232 -0.2395
vn -0.3089 -0.9485 -0.0702
vn -0.1046 -0.9921 0.0700
vn -0.1018 -0.9656 0.2394
vn 0.0980 -0.9274 0.3610
vn 0.0845 -0.7993 0.5949
vn 0.4008 -0.6966 0.5950
vn 0.4467 -0.6153 0.6495
vn 0.6659 -0.4831 0.5685
vn 0.7235 -0.2350 0.6491
vn 0.7856 -0.1674 0.5957
vn 0.7856 0.1674 0.5957
vn 0.9125 0.1944 0.3600
vn 0.8872 0.3948 0.2388
vn 0.9114 0.4055 0.0694
vn 0.8071 0.5861 -0.0704
vn 0.7859 0.5707 -0.2381
vn 0.6240 0.6934 -0.3603
vn 0.5375 0.5973 -0.5953
vn -0.0980 0.9274 -0.3610
vn -0.0845 0.7993 -0.5949
vn 0.0000 0.7608 -0.6490
vn 0.0000 0.5447 -0.8386
vn 0.1399 0.4293 -0.8923
vn -0.1046 0.9921 0.0700
vn -0.1018 0.9656 0.2394
vn -0.2881 0.8871 0.3605
vn -0.2542 0.7826 0.5682
vn -0.4469 0.6156 0.6491
vn -0.3198 0.4404 0.8389
vn -0.5177 0.1681 0.8389
vn -0.4514 0.0000 0.8923
vn -0.5177 -0.1681 0.8389
vn -0.3198 -0.4404 0.8389
vn -0.4469 -0.6156 0.6491
vn -0.2542 -0.7826 0.5682
vn -0.2881 -0.8871 0.3605
vn 0.3089 0.9485 0.0702
vn 0.4986 0.8640 -0.0695
vn 0.6673 0.7415 0.0702
vn -0.3202 0.4410 -0.8385
vn -0.4467 0.6153 -0.6495
vn -0.6659 0.4831 -0.5685
vn -0.7551 0.5479 -0.3599
vn -0.8872 0.3948 -0.2388
vn -0.9114 0.4055 -0.0694
vn -0.9757 0.2075 0.0703
vn -0.9498 0.2020 0.2388
vn -0.9329 0.0000 0.3602
vn -0.8229 0.0000 0.5682
vn -0.7237 -0.2350 0.6488
vn -0.4008 0.6966 -0.5950
vn -0.4653 0.8087 -0.3599
vn -0.6498 0.7220 -0.2376
vn -0.6673 0.7415 -0.0702
vn -0.8071 0.5861 0.0704
vn -0.7859 0.5707 0.2381
vn -0.8526 0.3788 0.3600
vn -0.7343 0.3262 0.5953
vn -0.7237 0.2350 0.6488
vn -0.3006 0.9232 -0.2395
vn -0.3089 0.9485 -0.0702
vn -0.4986 0.8640 0.0695
vn -0.4854 0.8410 0.2389
vn -0.6240 0.6934 0.3603
vn -0.5375 0.5973 0.5953
vn 0.9757 -0.2075 -0.0703
vn 0.9498 -0.2020 -0.2388
vn 0.8526 -0.3788 -0.3600
vn 0.7343 -0.3262 -0.5953
vn 0.5375 -0.5973 -0.5953
vn 0.9712 -0.0000 0.2381
vn 0.9976 0.0000 0.0697
vn 0.0000 0.7608 0.6490
vn 0.0845 0.7993 0.5949
vn 0.4008 0.6966 0.5950
vn 0.4653 0.8087 0.3599
vn 0.6498 0.7220 0.2376
vn 0.5181 0.1682 0.8386
vn 0.7235 0.2350 0.6491
vn 0.9329 -0.0000 -0.3602
vn 0.8229 0.0000 -0.5682
vn 0.7237 -0.2350 -0.6488
vn 0.0000 0.5447 0.8386
vn 0.3202 0.4410 0.8385
vn 0.3654 0.2653 0.8922
vn -0.2251 0.0000 0.9743
vn -0.0697 0.2140 0.9743
vn 0.1820 0.1322 0.9744
vn 0.4467 0.6153 0.6495
vn 0.6659 0.4831 0.5685
vn 0.9498 0.2020 -0.2388
vn 0.8526 0.3788 -0.3600
vn 0.7343 0.3262 -0.5953
vn -0.7343 -0.3262 0.5953
vn -0.8526 -0.3788 0.3600
vn -0.9498 -0.2020 0.2388
vn -0.9757 -0.2075 0.0703
vn -0.9976 -0.0000 -0.0697
vn -0.9712 0.0000 -0.2381
vn -0.9125 0.1944 -0.3600
vn -0.7856 0.1674 -0.5957
vn -0.7235 0.2350 -0.6491
vn -0.5181 0.1682 -0.8386
vn -0.3654 0.2653 -0.8922
vn -0.0697 -0.2140 0.9743
vn -0.1399 -0.4293 0.8923
vn 0.0000 -0.5447 0.8386
vn 0.0000 -0.7608 0.6490
vn -0.7859 -0.5707 0.2381
vn -0.8071 -0.5861 0.0704
vn -0.9114 -0.4055 -0.0694
vn -0.8872 -0.3948 -0.2388
vn -0.9125 -0.1944 -0.3600
vn -0.7856 -0.1674 -0.5957
vn -0.6673 -0.7415 -0.0702
vn -0.6498 -0.7220 -0.2376
vn -0.7552 -0.5479 -0.3599
vn -0.6659 -0.4831 -0.5685
vn -0.7235 -0.2350 -0.6491
vn -0.5181 -0.1682 -0.8386
vn 0.3006 0.9232 0.2395
vn 0.0980 0.9274 0.3610
vn 0.3202 -0.4410 0.8385
vn 0.3654 -0.2653 0.8922
vn 0.5181 -0.1682 0.8386
vn 0.3006 -0.9232 0.2395
vn 0.3089 -0.9485 0.0702
vn 0.4986 -0.8640 -0.0695
vn 0.4854 -0.8410 -0.2389
vn 0.6240 -0.6934 -0.3603
vn 0.7859 -0.5707 -0.2381
vn -0.5375 -0.5973 0.5953
vn -0.6240 -0.6934 0.3603
vn 0.9114 -0.4055 0.0694
vn 0.8872 -0.3948 0.2388
vn 0.9125 -0.1944 0.3600
vn 0.8071 -0.5861 -0.0704
vn 0.6673 -0.7415 0.0702
vn 0.6498 -0.7220 0.2376
vn 0.4653 -0.8087 0.3599
vn -0.4986 -0.8640 0.0695
vn -0.4854 -0.8410 0.2389
vn 0.9757 0.2075 -0.0703
vn -0.1399 0.4293 0.8923
vn 0.4854 0.8410 -0.2389
vn 0.1820 -0.1322 0.9744
vn 0.7237 0.2350 -0.6488
vn 0.7552 0.5479 0.3599
vn 0.7551 -0.5479 0.3599
vn -0.3654 -0.2653 -0.8922
usemtl None
s 1
f 1/1/1 3/2/1 2/3/1
f 2/3/2 3/2/2 4/4/2
f 3/2/3 5/5/3 4/4/3
f 4/4/4 5/5/4 6/6/4
f 5/5/5 7/7/5 6/6/5
f 6/6/6 7/7/6 8/8/6
f 7/7/7 9/9/7 8/8/7
f 8/8/8 9/9/8 10/10/8
f 9/9/9 11/11/9 10/10/9
f 10/10/10 11/11/10 12/12/10
f 11/11/11 13/13/11 12/12/11
f 12/12/12 13/13/12 14/14/12
f 13/13/13 15/15/13 14/14/13
f 14/14/14 15/15/14 16/16/14
f 15/15/15 17/17/15 16/16/15
f 18/18/16 10/10/16 19/19/16
f 19/19/17 10/10/17 12/12/17
f 19/19/18 12/12/18 20/20/18
f 20/20/19 12/12/19 14/14/19
f 21/21/20 18/22/20 22/23/20
f 22/23/21 18/22/21 19/24/21
f 16/16/22 23/25/22 14/14/22
f 14/14/23 23/25/23 20/20/23
f 10/10/24 18/22/24 8/8/24
f 8/8/25 18/22/25 21/26/25
f 19/24/26 20/27/26 24/28/26
f 24/28/27 20/27/27 25/29/27
f 20/27/28 23/30/28 25/29/28
f 25/29/29 23/30/29 26/31/29
f 23/30/30 16/32/30 26/31/30
f 26/31/31 16/32/31 27/33/31
f 16/32/32 17/17/32 27/33/32
f 27/33/33 17/17/33 28/34/33
f 17/17/34 29/35/34 28/34/34
f 28/34/35 29/35/35 30/36/35
f 29/35/36 31/37/36 30/36/36
f 30/36/37 31/37/37 32/38/37
f 31/37/38 33/39/38 32/38/38
f 32/38/39 33/39/39 34/40/39
f 33/39/40 35/41/40 34/40/40
f 34/40/41 35/41/41 36/42/41
f 35/41/42 37/43/42 36/42/42
f 36/42/43 37/43/43 38/44/43
f 37/43/44 39/45/44 38/44/44
f 38/44/45 39/45/45 40/46/45
f 39/45/46 41/47/46 40/46/46
f 40/46/47 41/47/47 5/5/47
f 41/47/48 7/7/48 5/5/48
f 2/3/49 4/4/49 42/48/49
f 42/48/50 4/4/50 43/49/50
f 4/4/51 6/6/51 43/49/51
f 43/49/52 6/6/52 21/26/52
f 6/6/53 8/8/53 21/26/53
f 2/50/54 44/51/54 1/52/54
f 1/52/55 44/51/55 45/53/55
f 44/51/56 46/54/56 45/53/56
f 45/53/57 46/54/57 47/55/57
f 46/54/58 48/56/58 47/55/58
f 47/55/59 48/56/59 49/57/59
f 48/56/60 50/58/60 49/57/60
f 49/57/61 50/58/61 51/59/61
f 50/58/62 52/60/62 51/59/62
f 51/59/63 52/60/63 53/61/63
f 52/60/64 54/62/64 53/61/64
f 53/61/65 54/62/65 28/34/65
f 54/62/66 27/33/66 28/34/66
f 1/52/67 55/63/67 3/2/67
f 3/2/68 55/63/68 40/46/68
f 55/63/69 38/44/69 40/46/69
f 21/21/70 56/64/70 43/65/70
f 43/65/71 56/64/71 57/66/71
f 56/64/72 58/67/72 57/66/72
f 57/66/73 58/67/73 59/68/73
f 58/67/74 60/69/74 59/68/74
f 59/68/75 60/69/75 61/70/75
f 60/69/76 62/71/76 61/70/76
f 61/70/77 62/71/77 63/72/77
f 62/71/78 64/73/78 63/72/78
f 63/72/79 64/73/79 50/58/79
f 64/73/80 52/60/80 50/58/80
f 43/65/81 57/66/81 42/74/81
f 42/74/82 57/66/82 65/75/82
f 57/66/83 59/68/83 65/75/83
f 65/75/84 59/68/84 66/76/84
f 59/68/85 61/70/85 66/76/85
f 66/76/86 61/70/86 67/77/86
f 61/70/87 63/72/87 67/77/87
f 67/77/88 63/72/88 48/56/88
f 63/72/89 50/58/89 48/56/89
f 42/74/90 65/75/90 2/50/90
f 2/50/91 65/75/91 44/51/91
f 65/75/92 66/76/92 44/51/92
f 44/51/93 66/76/93 46/54/93
f 66/76/94 67/77/94 46/54/94
f 46/54/95 67/77/95 48/56/95
f 68/78/96 70/79/96 69/80/96
f 69/80/97 70/79/97 71/81/97
f 70/79/98 72/82/98 71/81/98
f 71/81/99 72/82/99 11/11/99
f 72/82/100 13/13/100 11/11/100
f 35/41/101 68/78/101 37/43/101
f 37/43/102 68/78/102 69/80/102
f 47/55/103 73/83/103 45/53/103
f 45/53/104 73/83/104 74/84/104
f 73/83/105 75/85/105 74/84/105
f 74/84/106 75/85/106 55/63/106
f 75/85/107 38/44/107 55/63/107
f 76/86/108 34/40/108 77/87/108
f 77/87/109 34/40/109 36/42/109
f 69/80/110 71/81/110 78/88/110
f 78/88/111 71/81/111 9/9/111
f 71/81/112 11/11/112 9/9/112
f 47/55/113 79/89/113 73/83/113
f 73/83/114 79/89/114 77/87/114
f 79/89/115 76/86/115 77/87/115
f 51/59/116 80/90/116 49/57/116
f 49/57/117 80/90/117 79/89/117
f 80/90/118 76/86/118 79/89/118
f 73/83/119 77/87/119 75/85/119
f 75/85/120 77/87/120 36/42/120
f 69/80/121 78/88/121 39/45/121
f 39/45/122 78/88/122 41/47/122
f 78/88/123 7/7/123 41/47/123
f 52/60/124 64/73/124 81/91/124
f 81/91/125 64/73/125 82/92/125
f 64/73/126 62/71/126 82/92/126
f 82/92/127 62/71/127 83/93/127
f 62/71/128 60/69/128 83/93/128
f 83/93/129 60/69/129 84/94/129
f 60/69/130 58/67/130 84/94/130
f 84/94/131 58/67/131 85/95/131
f 58/67/132 56/64/132 85/95/132
f 85/95/133 56/64/133 22/23/133
f 56/64/134 21/21/134 22/23/134
f 80/90/135 51/59/135 86/96/135
f 86/96/136 51/59/136 53/61/136
f 86/96/137 53/61/137 30/36/137
f 30/36/138 53/61/138 28/34/138
f 81/91/139 82/92/139 87/97/139
f 87/97/140 82/92/140 88/98/140
f 82/92/141 83/93/141 88/98/141
f 88/98/142 83/93/142 89/99/142
f 83/93/143 84/94/143 89/99/143
f 89/99/144 84/94/144 85/95/144
f 87/97/145 88/98/145 26/31/145
f 26/31/146 88/98/146 25/29/146
f 88/98/147 89/99/147 25/29/147
f 25/29/148 89/99/148 24/28/148
f 89/99/149 85/95/149 24/28/149
f 24/28/150 85/95/150 22/23/150
f 55/63/151 1/52/151 74/84/151
f 74/84/152 1/52/152 45/53/152
f 30/36/153 32/38/153 86/96/153
f 86/96/154 32/38/154 76/86/154
f 32/38/155 34/40/155 76/86/155
f 29/35/156 17/17/156 90/100/156
f 90/100/157 17/17/157 15/15/157
f 90/100/158 15/15/158 91/101/158
f 91/101/159 15/15/159 13/13/159
f 13/13/160 72/82/160 91/101/160
f 91/101/161 72/82/161 70/79/161
f 52/60/162 81/91/162 54/62/162
f 54/62/163 81/91/163 87/97/163
f 70/79/164 68/78/164 92/102/164
f 92/102/165 68/78/165 33/39/165
f 68/78/166 35/41/166 33/39/166
f 70/79/167 92/102/167 91/101/167
f 91/101/168 92/102/168 90/100/168
f 92/102/169 31/37/169 90/100/169
f 90/100/170 31/37/170 29/35/170
f 26/31/171 27/33/171 87/97/171
f 87/97/172 27/33/172 54/62/172
f 39/45/173 37/43/173 69/80/173
f 49/57/174 79/89/174 47/55/174
f 3/2/175 40/46/175 5/5/175
f 76/86/176 80/90/176 86/96/176
f 9/9/177 7/7/177 78/88/177
f 36/42/178 38/44/178 75/85/178
f 31/37/179 92/102/179 33/39/179
f 22/23/180 19/24/180 24/28/180
